<?xml version="1.0" encoding="utf-8"?>
<!-- Generator: Adobe Illustrator 23.0.2, SVG Export Plug-In . SVG Version: 6.00 Build 0)  -->
<svg version="1.1" id="Layer_1" xmlns="http://www.w3.org/2000/svg" xmlns:xlink="http://www.w3.org/1999/xlink" x="0px" y="0px"
	 viewBox="0 0 52 51" style="enable-background:new 0 0 52 51;" xml:space="preserve">
<style type="text/css">
	.st0{fill:#E5D4A3;}
	.st1{fill:#6C4327;}
</style>
<path class="st0" d="M42.6,0.5C39,0,35.4,0,31.8,0.5l-9.4,1.2v15.2c0,9,7.5,14.6,14.8,16.1C45.7,31.1,52,25.9,52,16.9V1.6L42.6,0.5z
	"/>
<g>
	<path class="st1" d="M19.4,13.4h0.4v0.4c0,0.3,0.3,0.6,0.6,0.6c0.3,0,0.6-0.3,0.6-0.6v-0.4h0.4c0.3,0,0.6-0.3,0.6-0.6
		c0-0.3-0.3-0.6-0.6-0.6H21v-0.4c0-0.3-0.3-0.6-0.6-0.6c-0.3,0-0.6,0.3-0.6,0.6v0.4h-0.4c-0.3,0-0.6,0.3-0.6,0.6
		C18.8,13.2,19.1,13.4,19.4,13.4z M11.7,39c-0.6,0.4-1.2,1-1.6,1.6c-0.2,0.3-0.1,0.6,0.1,0.8c0.3,0.2,0.6,0.1,0.8-0.1
		c0.4-0.5,0.9-1,1.4-1.4c0.3-0.2,0.3-0.5,0.1-0.8C12.3,38.8,12,38.8,11.7,39z"/>
	<path class="st1" d="M25.4,35.6c-0.2,0-0.5,0-0.7,0c-0.1,0-0.4-0.1-0.5-0.4c1.4-0.1,3.8-0.6,6.9-2.3c0.2-0.1,0.3-0.3,0.3-0.5v-9.6
		c0-3.8-1.3-6.7-3.7-8.7l0.9-3.6c0.1-0.3-0.1-0.7-0.6-0.7H12.8c-0.3,0-0.7,0.3-0.6,0.7c0.2,0.9,1,3.6,1,3.6
		c-2.4,1.9-3.7,4.9-3.7,8.7v9.6c0,0.2,0.1,0.4,0.3,0.5c3.1,1.8,5.5,2.2,6.9,2.3c0,0.2-0.2,0.4-0.5,0.4c-0.3,0-0.8,0-0.8,0
		c-5.1,0.4-8.9,4.6-8.8,9.6v3.5c0,0.3,0.3,0.6,0.6,0.6h26.5c0.3,0,0.6-0.3,0.6-0.6v-3.4C34.3,41.8,32,36.1,25.4,35.6L25.4,35.6z
		 M20.4,39.8l-3.6-3.3c0.6-0.2,1-0.8,1-1.5V34c1.7,0.6,3.5,0.6,5.2,0V35c0,0.7,0.4,1.3,1,1.5L20.4,39.8z M13.4,23.1
		c4.3-0.4,7.5-1.6,9.8-3.6l0,0c1.3,1.7,2.2,2.9,4.4,3.4v3.2c0,3.9-3.2,7.1-7.1,7.1s-7.1-3.2-7.1-7.1L13.4,23.1z M24.2,33.9v-0.5
		c2.8-1.4,4.5-4.2,4.5-7.3v-3c0.5,0.1,1,0.1,1.6,0.1v8.7C27.5,33.4,25.4,33.8,24.2,33.9z M27.3,10.9l-1.4,5.2c-1.8-0.7-3.6-1-5.5-1
		c-1.9,0-3.7,0.4-5.5,1l-1.4-5.2L27.3,10.9z M13.5,15.2L14,17c0.1,0.3,0.5,0.5,0.8,0.4c1.8-0.8,3.7-1.2,5.6-1.2
		c1.9,0,3.9,0.4,5.6,1.2c0.4,0.2,0.7-0.1,0.8-0.4l0.5-1.8c1.8,1.6,2.7,3.9,2.9,6.8c-2.7,0-4.3-0.3-6.6-3.7c-0.1-0.2-0.5-0.4-0.9-0.1
		c-2.5,2.5-6.5,3.7-12.1,3.8C10.8,19.2,11.7,16.8,13.5,15.2L13.5,15.2z M10.6,23.2c0.5,0,1.1,0,1.6,0v3c0,3.1,1.7,5.9,4.5,7.3V34
		c-1.3-0.1-3.3-0.5-6.1-2V23.2z M7.7,45.2c0-4.3,3.2-7.9,7.5-8.4l4.3,3.9L18.2,42C18,42.1,18,42.2,18,42.4v5.7H7.7L7.7,45.2z
		 M33.1,48h-14v-5.4l6.5-5.9h0.1c0.5,0.1,1,0.2,1.5,0.3h0c3.5,1.1,5.9,4.4,5.9,8.1L33.1,48z"/>
	<path class="st1" d="M28,42.4h-3c-0.3,0-0.6,0.3-0.6,0.6s0.3,0.6,0.6,0.6h3c0.3,0,0.6-0.3,0.6-0.6S28.3,42.4,28,42.4z"/>
</g>
</svg>
